<?xml version="1.0" encoding="UTF-8" standalone="no"?>
<!DOCTYPE svg PUBLIC "-//W3C//DTD SVG 1.1//EN" "http://www.w3.org/Graphics/SVG/1.1/DTD/svg11.dtd">
<svg width="100%" height="100%" viewBox="0 0 343 135" version="1.1" xmlns="http://www.w3.org/2000/svg" xmlns:xlink="http://www.w3.org/1999/xlink" xml:space="preserve" xmlns:serif="http://www.serif.com/" style="fill-rule:evenodd;clip-rule:evenodd;stroke-miterlimit:10;">
    <g transform="matrix(1,0,0,1,-163.424,-299.475)">
        <g transform="matrix(1,0,0,1,187.5,361.5)">
            <path d="M0,36C-12,29 -14,2 -14,2L-19,0C-20,29 -6,36 -6,36L88,36C88,36 89,7 140,7C140,7 183,5 193,29L193,32L202,36L283,36L301.827,24.75" style="fill:none;fill-rule:nonzero;stroke:black;stroke-width:1px;"/>
        </g>
        <g transform="matrix(1,0,0,1,173.5,397.5)">
            <path d="M0,-34L84,-16C84,-16 84.333,-9 94.167,0" style="fill:none;fill-rule:nonzero;stroke:black;stroke-width:1px;"/>
        </g>
        <g transform="matrix(1,0,0,1,261.333,355.5)">
            <path d="M0,42C-13.167,28 -3.833,26 -3.833,26L9.167,25L15.167,25C15.167,25 11.167,22 20.167,9L31.167,9L36.167,13C36.167,13 45.167,3 57.167,0L67.167,5L64.167,7L67.167,9C67.167,9 78.167,3 97.167,4L101.167,10L97.167,13C97.167,13 118.167,12 128.167,18L125.167,24L120.167,24C120.167,24 132.167,28 143.167,37L128.167,42" style="fill:none;fill-rule:nonzero;stroke:black;stroke-width:1px;"/>
        </g>
        <g transform="matrix(1,0,0,1,404.5,357.5)">
            <path d="M0,35L95,28C95,28 78,6 49,0L-18,22" style="fill:none;fill-rule:nonzero;stroke:black;stroke-width:1px;"/>
        </g>
        <g transform="matrix(1,0,0,1,389.5,327.705)">
            <path d="M0,45.795L75,12.795C75,12.795 65.817,2.205 8.409,0" style="fill:none;fill-rule:nonzero;stroke:black;stroke-width:1px;"/>
        </g>
        <g transform="matrix(1,0,0,1,358.5,304.849)">
            <path d="M0,54.651L35,6.651C35,6.651 13.512,0 -33.244,13.825" style="fill:none;fill-rule:nonzero;stroke:black;stroke-width:1px;"/>
        </g>
        <g transform="matrix(1,0,0,1,318.5,304.5)">
            <path d="M0,51L-12,0C-12,0 -51,8 -64,26" style="fill:none;fill-rule:nonzero;stroke:black;stroke-width:1px;"/>
        </g>
        <g transform="matrix(1,0,0,1,281.5,322.5)">
            <path d="M0,42L-58,0C-58,0 -79.67,10.296 -79.835,37.648" style="fill:none;fill-rule:nonzero;stroke:black;stroke-width:1px;"/>
        </g>
        <g transform="matrix(1,0,0,1,391.984,365.5)">
            <path d="M0,-51.921L7.516,-34L-29.484,0" style="fill:none;fill-rule:nonzero;stroke:black;stroke-width:1px;"/>
        </g>
        <g transform="matrix(1,0,0,1,328.5,308.671)">
            <path d="M0,51.829L0,11.829L-21.019,0" style="fill:none;fill-rule:nonzero;stroke:black;stroke-width:1px;"/>
        </g>
        <g transform="matrix(1,0,0,1,292.5,325.784)">
            <path d="M0,38.716L-34,5.716L-64.464,0" style="fill:none;fill-rule:nonzero;stroke:black;stroke-width:1px;"/>
        </g>
        <g transform="matrix(1,0,0,1,172.121,377.052)">
            <path d="M0,-14.104L36.379,-17.552L98.379,3.448" style="fill:none;fill-rule:nonzero;stroke:black;stroke-width:1px;"/>
        </g>
        <g transform="matrix(-0.984375,-0.176087,-0.176087,0.984375,400.932,326.236)">
            <path d="M-61.237,5.434C-61.237,5.434 -39.877,-1.786 0.482,5.434" style="fill:none;fill-rule:nonzero;stroke:black;stroke-width:1px;"/>
        </g>
        <g transform="matrix(-0.851336,-0.52462,-0.52462,0.851336,460.262,349.142)">
            <path d="M-48.004,13.603C-48.004,13.603 -31.261,5.121 3.855,13.603" style="fill:none;fill-rule:nonzero;stroke:black;stroke-width:1px;"/>
        </g>
        <g transform="matrix(-0.995301,0.0968258,0.0968258,0.995301,328.659,317.664)">
            <path d="M-62.763,2.808C-62.763,2.808 -43.527,-4.972 0.433,2.808" style="fill:none;fill-rule:nonzero;stroke:black;stroke-width:1px;"/>
        </g>
        <g transform="matrix(-0.899502,0.436916,0.436916,0.899502,266.127,340.966)">
            <path d="M-51.503,-11.846C-51.503,-11.846 -26.702,-19.787 2.725,-11.847" style="fill:none;fill-rule:nonzero;stroke:black;stroke-width:1px;"/>
        </g>
        <g transform="matrix(-0.447774,0.894147,0.894147,0.447774,226.889,359.007)">
            <path d="M-30.608,-16.221C-30.608,-16.221 -6.076,-26.964 8.675,-16.221" style="fill:none;fill-rule:nonzero;stroke:black;stroke-width:1px;"/>
        </g>
        <g transform="matrix(0.566529,-0.824042,-0.824042,-0.566529,279.888,381.348)">
            <path d="M-4.62,8.217C-4.62,8.217 11.088,15.376 14.796,8.217" style="fill:none;fill-rule:nonzero;stroke:black;stroke-width:1px;"/>
        </g>
        <g transform="matrix(0.909455,-0.415802,-0.415802,-0.909455,298.539,370.684)">
            <path d="M-1.596,5.509C-1.596,5.509 14.385,12.318 24.467,5.509" style="fill:none;fill-rule:nonzero;stroke:black;stroke-width:1px;"/>
        </g>
        <g transform="matrix(0.999445,-0.0333148,-0.0333148,-0.999445,328.592,360.998)">
            <path d="M-0.075,0.501C-0.075,0.501 18.082,4.899 29.942,0.501" style="fill:none;fill-rule:nonzero;stroke:black;stroke-width:1px;"/>
        </g>
        <g transform="matrix(0.958798,0.284088,0.284088,-0.958798,363.908,361.788)">
            <path d="M-0.296,-3.959C-0.296,-3.959 23.106,5.061 27.864,-3.959" style="fill:none;fill-rule:nonzero;stroke:black;stroke-width:1px;"/>
        </g>
        <g transform="matrix(0.810679,0.585491,0.585491,-0.810679,392.199,374.876)">
            <path d="M-1.912,-7.085C-1.912,-7.085 17.814,-0.24 20.291,-7.085" style="fill:none;fill-rule:nonzero;stroke:black;stroke-width:1px;"/>
        </g>
        <g transform="matrix(0.447214,-0.894427,-0.894427,-0.447214,460.867,357.655)">
            <path d="M-4.944,8L12.944,8" style="fill:none;fill-rule:nonzero;stroke:black;stroke-width:1px;"/>
        </g>
        <text x="164.113px" y="425.667px" style="font-family:'Papyrus-Regular', 'Papyrus';font-size:21px;">Southeastern Stair Company, LLC.</text>
    </g>
</svg>
